<svg width="1000" height="1000" viewBox="0 0 1000 1000" xmlns="http://www.w3.org/2000/svg"><defs/><path fill="#f75124" d="M 0 0 L 1000 0 L 1000 1000 L 0 1000 Z"/><path fill="#f5c008" transform="matrix(0.5288068776732497 0 0 0.5288068776732497 3.769544978614003 74.83798275371767)" d="M 742.92903393541 628.40243490969 C 656.52903393541 628.40243490969 577.82903393541 661.40243490969 518.52903393541 715.50243490969 C 459.22903393541 661.50243490969 380.42903393541 628.40243490969 294.12903393541 628.40243490969 L 276.52903393541 628.40243490969 L 276.52903393541 979.60243490969 L 342.92903393541 979.60243490969 L 356.52903393541 979.60243490969 L 444.32903393541 979.60243490969 L 444.32903393541 962.00243490969 C 444.32903393541 926.60243490969 450.62903393541 892.60243490969 461.92903393541 861.10243490969 C 482.82903393541 897.70243490969 496.82903393541 933.80243490969 496.82903393541 978.50243490969 L 504.92903393541 978.50243490969 L 531.92903393541 978.50243490969 L 540.02903393541 978.50243490969 C 540.02903393541 931.70243490969 550.72903393541 894.10243490969 573.22903393541 856.50243490969 C 585.62903393541 889.30243490969 592.52903393541 924.80243490969 592.52903393541 961.90243490969 L 592.52903393541 979.60243490969 L 653.72903393541 979.60243490969 L 671.32903393541 979.60243490969 L 760.52903393541 979.60243490969 L 760.52903393541 628.40243490969 L 742.92903393541 628.40243490969 Z M 725.42903393541 664.00243490969 L 725.42903393541 707.40243490969 C 712.92903393541 710.10243490969 700.72903393541 713.70243490969 689.02903393541 718.00243490969 L 689.02903393541 668.40243490969 C 700.92903393541 666.20243490969 713.02903393541 664.70243490969 725.42903393541 664.00243490969 Z M 653.82903393541 733.60243490969 C 626.02903393541 748.30243490969 601.12903393541 767.50243490969 579.82903393541 790.10243490969 C 569.12903393541 772.40243490969 556.82903393541 755.80243490969 543.12903393541 740.40243490969 C 574.62903393541 712.00243490969 612.32903393541 690.10243490969 653.72903393541 677.10243490969 L 653.72903393541 733.60243490969 Z M 378.02903393541 733.10243490969 L 378.02903393541 675.60243490969 C 421.52903393541 688.40243490969 461.02903393541 710.80243490969 493.82903393541 740.40243490969 C 479.42903393541 756.60243490969 466.52903393541 774.10243490969 455.42903393541 792.90243490969 C 433.42903393541 768.80243490969 407.32903393541 748.50243490969 378.02903393541 733.10243490969 Z M 342.92903393541 667.50243490969 L 342.92903393541 717.60243490969 C 332.82903393541 713.90243490969 322.42903393541 710.80243490969 311.72903393541 708.30243490969 L 311.72903393541 664.00243490969 C 322.22903393541 664.60243490969 332.62903393541 665.80243490969 342.92903393541 667.50243490969 Z M 311.62903393541 944.50243490969 L 311.62903393541 744.50243490969 C 322.32903393541 747.40243490969 332.82903393541 751.00243490969 342.82903393541 755.30243490969 L 342.82903393541 944.50243490969 L 311.62903393541 944.50243490969 Z M 409.72903393541 944.50243490969 L 378.02903393541 944.50243490969 L 378.02903393541 773.70243490969 C 400.92903393541 788.00243490969 421.12903393541 805.90243490969 438.12903393541 826.60243490969 C 421.82903393541 862.90243490969 411.82903393541 902.70243490969 409.72903393541 944.50243490969 Z M 516.42903393541 898.10243490969 C 507.72903393541 871.00243490969 495.12903393541 845.50243490969 479.12903393541 822.50243490969 C 490.02903393541 801.90243490969 503.32903393541 782.80243490969 518.52903393541 765.40243490969 C 532.92903393541 781.80243490969 545.52903393541 799.80243490969 556.12903393541 819.10243490969 C 538.92903393541 842.90243490969 525.52903393541 869.50243490969 516.42903393541 898.10243490969 Z M 627.32903393541 944.50243490969 C 625.12903393541 901.40243490969 614.52903393541 860.40243490969 597.42903393541 823.10243490969 C 613.62903393541 804.10243490969 632.62903393541 787.50243490969 653.82903393541 774.10243490969 L 653.82903393541 944.50243490969 L 627.32903393541 944.50243490969 Z M 688.92903393541 944.50243490969 L 688.92903393541 755.70243490969 C 700.62903393541 750.70243490969 712.72903393541 746.50243490969 725.32903393541 743.30243490969 L 725.32903393541 944.40243490969 L 688.92903393541 944.40243490969 Z"/><path id="text" fill="#ffffff" transform="matrix(1.3897642438850373 0 0 1.3897642438850373 301.7441162275259 105.87973157913399)" d="M 119.93560325415 307.49186042668 L 150.94360325415 307.49186042668 L 150.94360325415 316.99586042668 L 106.97560325415 316.99586042668 L 106.97560325415 308.45186042668 L 137.88760325415 259.77986042668 L 106.97560325415 259.77986042668 L 106.97560325415 250.27586042668 L 150.94360325415 250.27586042668 L 150.94360325415 258.81986042668 L 119.93560325415 307.49186042668 Z M 203.16760325415 303.36386042668 L 175.23160325415 303.36386042668 L 170.43160325415 316.99586042668 L 159.00760325415 316.99586042668 L 182.91160325415 250.17986042668 L 195.58360325415 250.17986042668 L 219.48760325415 316.99586042668 L 207.96760325415 316.99586042668 L 203.16760325415 303.36386042668 Z M 200.09560325415 294.43586042668 L 189.24760325415 263.42786042668 L 178.30360325415 294.43586042668 L 200.09560325415 294.43586042668 Z M 283.13560325415 250.27586042668 L 283.13560325415 316.99586042668 L 272.19160325415 316.99586042668 L 272.19160325415 287.81186042668 L 240.79960325415 287.81186042668 L 240.79960325415 316.99586042668 L 229.85560325415 316.99586042668 L 229.85560325415 250.27586042668 L 240.79960325415 250.27586042668 L 240.79960325415 278.88386042668 L 272.19160325415 278.88386042668 L 272.19160325415 250.27586042668 L 283.13560325415 250.27586042668 Z M 308.47960325415 250.27586042668 L 308.47960325415 316.99586042668 L 297.53560325415 316.99586042668 L 297.53560325415 250.27586042668 L 308.47960325415 250.27586042668 Z M 357.53560325415 316.99586042668 L 342.17560325415 290.30786042668 L 333.82360325415 290.30786042668 L 333.82360325415 316.99586042668 L 322.87960325415 316.99586042668 L 322.87960325415 250.27586042668 L 345.91960325415 250.27586042668 C 351.03960325415 250.27586042668 355.37560325415 251.17186042668 358.92760325415 252.96386042668 C 362.47960325415 254.75586042668 365.13560325415 257.15586042668 366.89560325415 260.16386042668 C 368.65560325415 263.17186042668 369.53560325415 266.53186042668 369.53560325415 270.24386042668 C 369.53560325415 274.59586042668 368.27160325415 278.54786042668 365.74360325415 282.09986042668 C 363.21560325415 285.65186042668 359.32760325415 288.06786042668 354.07960325415 289.34786042668 L 370.59160325415 316.99586042668 L 357.53560325415 316.99586042668 Z M 333.82360325415 281.57186042668 L 345.91960325415 281.57186042668 C 350.01560325415 281.57186042668 353.10360325415 280.54786042668 355.18360325415 278.49986042668 C 357.26360325415 276.45186042668 358.30360325415 273.69986042668 358.30360325415 270.24386042668 C 358.30360325415 266.78786042668 357.27960325415 264.08386042668 355.23160325415 262.13186042668 C 353.18360325415 260.17986042668 350.07960325415 259.20386042668 345.91960325415 259.20386042668 L 333.82360325415 259.20386042668 L 333.82360325415 281.57186042668 Z M 394.49560325415 250.27586042668 L 394.49560325415 316.99586042668 L 383.55160325415 316.99586042668 L 383.55160325415 250.27586042668 L 394.49560325415 250.27586042668 Z"/></svg>